<svg xmlns="http://www.w3.org/2000/svg" style="width:0; height:0; visibility:hidden;">
  <defs>
        <clipPath id="a"> <rect class="a" x="455.33" y="-68.19" width="111.61" height="164.77"/> </clipPath> 
  </defs>
    <symbol id="icon_icon-chevron-down" viewBox="0 0 24 24">
       <polyline points="6 9 12 15 18 9"/> 
    </symbol>
    <symbol id="icon_icon-clock" viewBox="0 0 1024 1024">
        <title>clock</title> <path class="a" d="M809.06,808.08l-51-51M514,36C250.56,36,37,249.56,37,513S250.56,990,514,990,991,776.44,991,513,777.44,36,514,36Zm0,418.79A58.21,58.21,0,1,0,572.21,513,58.21,58.21,0,0,0,514,454.79ZM514,513,672.69,350.57M273.56,759.7l-51,51m586-589.1-51,51M514,855.13v76.56m0-836.38v76.56M217.31,217.92l51,51M94.5,516.19h76.56m685.86,0h76.56"/> 
    </symbol>
    <symbol id="icon_icon-phone-call" viewBox="0 0 1024 1024">
        <title>phone-call</title> <g> <path class="a" d="M64.89,195.85a154.43,154.43,0,0,0-11.77,14.71c-33.18,29.37-59.42,94-44,173.62C75.3,728.95,365.73,991.62,715.37,1023c7.53.68,15,1,22.44,1,40.17,0,78.07-9.9,108.25-28.44a159,159,0,0,0,38.59-31.14l30-33.2c58.56-64.76,53.51-165.09-11.22-223.65l-50.67-45.81A158.28,158.28,0,0,0,629.14,673l-30,33.18a157.32,157.32,0,0,0-28,43.48,560.72,560.72,0,0,1-278.6-255,158.48,158.48,0,0,0,57.86-40.54l30-33.16a158.43,158.43,0,0,0-11.21-223.7l-50.65-45.77A158.38,158.38,0,0,0,94.89,162.64Zm60.2-5.91a117.68,117.68,0,0,1,166.18-8.29l50.65,45.78a117.72,117.72,0,0,1,8.33,166.2l-30,33.15h0A117.48,117.48,0,0,1,267,460.53l-9.12,2.74a20.35,20.35,0,0,0-12.37,28.55l4.24,8.55a601.49,601.49,0,0,0,318,291.84l7.9,3.11a20.33,20.33,0,0,0,26.74-12.49l2.67-8a117,117,0,0,1,24.27-41.39l30-33.18a117.58,117.58,0,0,1,166.16-8.33l50.66,45.81a117.79,117.79,0,0,1,8.33,166.16l-30,33.21a119.61,119.61,0,0,1-29.23,23.47C796.43,978.27,758.74,986,719,982.44,387.36,952.69,111.87,703.53,49.09,376.49c-13.28-68.56,11.68-118.93,31.7-136a20.27,20.27,0,0,0,1.85-1.8L84,237.11A21.23,21.23,0,0,0,85.68,235a114.87,114.87,0,0,1,9.41-11.87Z"/> <path class="a" d="M1019.42,483.47C1019.42,216.88,802.55,0,536,0a42.35,42.35,0,1,0,0,84.69c219.87,0,398.75,178.89,398.75,398.77a42.34,42.34,0,0,0,84.67,0Zm-42.33,22a22,22,0,0,1-22-22c0-231.11-188-419.12-419.11-419.12a22,22,0,1,1,0-44c255.34,0,463.08,207.75,463.08,463.11A22,22,0,0,1,977.09,505.44Z"/> <path class="a" d="M530.78,157.43a42.34,42.34,0,0,0,0,84.68c135.94,0,246.54,110.6,246.54,246.54a42.35,42.35,0,0,0,84.69,0C862,306,713.42,157.43,530.78,157.43ZM819.67,510.64a22,22,0,0,1-22-22c0-147.16-119.73-266.9-266.89-266.9a22,22,0,0,1,0-44c171.42,0,310.87,139.45,310.87,310.86A22,22,0,0,1,819.67,510.64Z"/> </g> 
    </symbol>
    <symbol id="icon_icon-phone" viewBox="0 0 1040 1040">
       <path d="M64.89,195.85a154.43,154.43,0,0,0-11.77,14.71c-33.18,29.37-59.42,94-44,173.62C75.3,728.95,365.73,991.62,715.37,1023c7.53.68,15,1,22.44,1,40.17,0,78.07-9.9,108.25-28.44a159,159,0,0,0,38.59-31.14l30-33.2c58.56-64.76,53.51-165.09-11.22-223.65l-50.67-45.81A158.28,158.28,0,0,0,629.14,673l-30,33.18a157.32,157.32,0,0,0-28,43.48,560.72,560.72,0,0,1-278.6-255,158.48,158.48,0,0,0,57.86-40.54l30-33.16a158.43,158.43,0,0,0-11.21-223.7l-50.65-45.77A158.38,158.38,0,0,0,94.89,162.64Zm60.2-5.91a117.68,117.68,0,0,1,166.18-8.29l50.65,45.78a117.72,117.72,0,0,1,8.33,166.2l-30,33.15h0A117.48,117.48,0,0,1,267,460.53l-9.12,2.74a20.35,20.35,0,0,0-12.37,28.55l4.24,8.55a601.49,601.49,0,0,0,318,291.84l7.9,3.11a20.33,20.33,0,0,0,26.74-12.49l2.67-8a117,117,0,0,1,24.27-41.39l30-33.18a117.58,117.58,0,0,1,166.16-8.33l50.66,45.81a117.79,117.79,0,0,1,8.33,166.16l-30,33.21a119.61,119.61,0,0,1-29.23,23.47C796.43,978.27,758.74,986,719,982.44,387.36,952.69,111.87,703.53,49.09,376.49c-13.28-68.56,11.68-118.93,31.7-136a20.27,20.27,0,0,0,1.85-1.8L84,237.11A21.23,21.23,0,0,0,85.68,235a114.87,114.87,0,0,1,9.41-11.87Z"/> 
    </symbol>
    <symbol id="icon_icon-pin" viewBox="0 0 1024 1024">
        <title>pin</title> <g> <path class="b" d="M635.4,1002.77l-21.35-21.35M512,679.88c-110.17,0-199.49,89.31-199.49,199.49S401.83,1078.85,512,1078.85s199.49-89.31,199.49-199.49S622.17,679.88,512,679.88ZM512,855a24.34,24.34,0,1,0,24.34,24.34A24.34,24.34,0,0,0,512,855Zm0,24.34,66.37-67.93M411.44,982.54l-21.35,21.35M635.18,757.52l-21.35,21.35M512,1022.45v32m0-349.78v32M387.92,756l21.35,21.35M336.56,880.7h32m286.83,0h32"/> <g> <g class="c"> <path d="M511.15-68.19a55.88,55.88,0,0,0-55.82,55.82c0,12.37,7.28,31.18,22.91,59.19C488.92,65.93,499.54,82.08,500,82.76l7.68,11.63a4.18,4.18,0,0,0,7,0l7.68-11.63c.44-.67,11-16.68,21.74-35.94C559.69,18.8,567,0,567-12.38a55.88,55.88,0,0,0-55.82-55.82Zm25.6,110.93c-10.6,19-21,34.75-21.41,35.41l-4.18,6.34L507,78.15c-.44-.67-10.89-16.56-21.42-35.41C471,16.75,463.7-1.79,463.7-12.38a47.51,47.51,0,0,1,47.45-47.45A47.51,47.51,0,0,1,558.6-12.38c0,10.59-7.35,29.13-21.85,55.12Zm0,0"/> </g> <path d="M511.15-43.67A31,31,0,0,0,480.2-12.73a31,31,0,0,0,30.95,30.95A31,31,0,0,0,542.1-12.73a31,31,0,0,0-30.95-30.95Zm0,53.53a22.61,22.61,0,0,1-22.58-22.58,22.61,22.61,0,0,1,22.58-22.58,22.61,22.61,0,0,1,22.58,22.58A22.61,22.61,0,0,1,511.15,9.86Zm0,0"/> </g> </g> 
    </symbol></svg>